<svg width="220" height="60" viewBox="0 0 220 60" fill="none" xmlns="http://www.w3.org/2000/svg">
<path d="M138.553 22.6104L138.576 27.6027H131.661L131.632 48.5702H125.308L125.337 27.6027H118.459L118.473 22.6104H138.553ZM164.217 22.6104L164.174 48.5705H157.85L157.853 37.8094H148.017L148.014 48.5705H141.69L141.733 22.6104H148.057L148.031 32.8168H157.867L157.893 22.6104H164.217H164.217ZM184.893 43.9848H175.205L173.64 48.5702H167.021L176.457 22.6101H183.779L193.128 48.5702H186.435L184.893 43.9848H184.893ZM183.313 39.1774L180.114 29.5625L176.841 39.1774H183.313ZM219.199 48.5702H212.876L202.345 32.5579L202.299 48.5702H195.976L196.019 22.6101H202.343L212.886 38.6964L212.919 22.6101H219.242L219.199 48.5702H219.199Z" fill="#A3B055"/>
<path fill-rule="evenodd" clip-rule="evenodd" d="M113.706 0.838169C116.461 2.70838 116.74 7.10474 114.328 10.6582C111.916 14.2114 107.727 15.5762 104.972 13.706C102.217 11.8358 101.939 7.4392 104.351 3.88602C106.762 0.332571 110.951 -1.03204 113.706 0.838169Z" fill="#A3B055"/>
<path d="M23.2233 48.6269H16.8997L6.36933 32.6145L6.32363 48.6269H0L0.0431039 22.6668H6.36673L16.9101 38.7531L16.9428 22.6668H23.2664L23.2233 48.6269ZM34.1614 27.6594L34.1816 33.0583H42.6499L42.6341 37.8286H34.1658L34.1463 43.6345H43.7239L43.7099 48.6269H27.8087L27.8518 22.6668H43.753L43.739 27.6591H34.1614V27.6594ZM60.2113 48.8858C58.017 48.8858 56.0082 48.4298 54.1845 47.5175C52.3608 46.6053 50.8484 45.3232 49.6471 43.6714C48.4459 42.0196 47.6578 40.1213 47.2825 37.9767C46.752 34.9441 46.9317 32.2385 47.8222 29.8596C48.7126 27.4804 50.2062 25.6253 52.3029 24.2942C54.3995 22.9628 56.9272 22.2972 59.8854 22.2972C62.1041 22.2972 64.1306 22.7473 65.9644 23.6471C67.7985 24.5468 69.3147 25.8164 70.5137 27.456C71.7126 29.0954 72.4978 30.9752 72.8687 33.0955C73.3992 36.1277 73.2216 38.8458 72.3355 41.2494C71.4495 43.6532 69.953 45.5268 67.846 46.8704C65.739 48.214 63.1939 48.8858 60.211 48.8858H60.2113ZM60.1505 43.043C61.7776 43.043 63.1342 42.6239 64.2202 41.7856C65.3061 40.9474 66.0641 39.8196 66.4941 38.402C66.9242 36.9844 66.9945 35.4497 66.7055 33.7979C66.3949 32.023 65.6582 30.6298 64.4951 29.6191C63.3321 28.6082 61.8631 28.1029 60.0882 28.1029C58.4611 28.1029 57.0983 28.522 56.0001 29.3603C54.9017 30.1985 54.1356 31.3141 53.7015 32.707C53.2673 34.0999 53.1967 35.6346 53.4901 37.3111C53.8007 39.086 54.5384 40.4852 55.7036 41.5083C56.8687 42.5314 58.3512 43.043 60.1508 43.043H60.1505Z" fill="#323A2D"/>
<path d="M81.8995 51.038L82.3231 51.3202L82.676 51.4615L83.0992 51.5321C83.8048 51.3439 84.3223 50.9676 84.6516 50.403L85.4278 49.0623L86.2039 47.2981L86.6978 45.3222L86.9801 43.2053L87.0507 42.1468C87.0507 41.8175 87.0977 41.441 87.1917 41.0177V39.9593V38.9008C84.1694 39.8886 82.0995 42.1232 80.9821 45.6044C80.6999 46.4513 80.5588 47.4861 80.5588 48.7092L80.7705 49.6266L81.476 50.6851L81.8993 51.038H81.8995ZM86.4156 22.6003H104.551L104.762 21.6124L105.185 20.554L112.242 19.0723L111.889 19.7778L111.607 20.6953L111.324 21.7537L111.254 22.6005H115.558V25.4232H110.348C110.254 26.27 110.066 27.1872 109.784 28.1753L109.349 30.9274L109.066 33.7498V36.7842C108.972 41.018 109.207 45.0874 109.772 48.9919C110.242 52.1439 110.948 54.3785 111.889 55.6955L104.832 60L103.633 56.5424L102.786 52.0263C102.409 49.9564 102.198 48.2158 102.151 46.8044L102.009 40.877C101.539 40.5007 100.951 40.1242 100.245 39.7479L98.0579 38.9011L95.5881 38.4072L92.9067 38.1955C92.9067 41.6768 92.1539 45.0402 90.6486 48.2861C88.7669 52.2847 86.2499 54.2842 83.0982 54.2842C79.9933 54.2842 77.7824 52.8728 76.4653 50.0621C76.136 49.0743 75.9714 48.1568 75.9714 47.31C75.9714 43.5114 78.0649 40.3711 82.2517 37.878C83.2865 37.2664 84.6978 36.6902 86.4854 36.1256C85.8269 32.1388 83.2631 28.5635 78.7941 25.4235H73.5723V22.6008H77.7357L83.0985 19.0725L85.1447 20.9778C85.2387 21.0721 85.6623 21.613 86.4148 22.6008L86.4156 22.6003ZM103.704 25.423H88.3208C90.814 28.81 92.3429 32.103 92.9075 35.3019H94.0365C97.1885 35.3019 99.9639 35.8901 102.363 37.0659C102.363 32.7851 102.81 28.904 103.704 25.4227V25.423Z" fill="#A3B055"/>
<path fill-rule="evenodd" clip-rule="evenodd" d="M110.753 5.09107C112.326 6.15861 112.485 8.66893 111.107 10.6975C109.73 12.7261 107.339 13.5054 105.766 12.4376C104.193 11.3701 104.034 8.85979 105.411 6.83118C106.788 4.80257 109.18 4.02327 110.753 5.09107Z" fill="#323A2D"/>
</svg>
